<svg width="22" height="22" viewBox="0 0 22 22" fill="none" xmlns="http://www.w3.org/2000/svg">
<path d="M13.75 4.58334C13.6294 4.58264 13.5098 4.60576 13.3981 4.65138C13.2864 4.697 13.1849 4.76421 13.0992 4.84917L7.5992 10.3492C7.42847 10.5209 7.33264 10.7533 7.33264 10.9954C7.33264 11.2376 7.42847 11.4699 7.5992 11.6417L13.0992 17.1417C13.2746 17.2918 13.5001 17.3703 13.7308 17.3614C13.9615 17.3525 14.1804 17.2569 14.3436 17.0936C14.5069 16.9304 14.6025 16.7115 14.6114 16.4808C14.6203 16.2501 14.5419 16.0245 14.3917 15.8492L9.54253 11L14.3917 6.15084C14.5204 6.02317 14.6084 5.8602 14.6445 5.68254C14.6806 5.50488 14.6632 5.3205 14.5945 5.15272C14.5258 4.98494 14.409 4.8413 14.2586 4.73995C14.1083 4.6386 13.9313 4.5841 13.75 4.58334Z" fill="#06161C"/>
</svg>
