<svg width="26" height="39" viewBox="0 0 26 39" fill="none" xmlns="http://www.w3.org/2000/svg">
<g clip-path="url(#clip0_48_1014)">
<path d="M25.9116 25.2643C25.9116 25.3198 25.9107 25.3763 25.9107 25.4326C25.9062 25.9117 25.8758 26.3855 25.8204 26.8529C25.6836 28.0189 25.394 29.1418 24.9721 30.2004C24.9524 30.2496 24.9328 30.2989 24.9122 30.3481C24.8916 30.3965 24.871 30.4457 24.8514 30.4949C24.8299 30.5433 24.8093 30.5925 24.7879 30.6409C24.7772 30.6641 24.7664 30.6874 24.7566 30.7116C24.7432 30.7411 24.7298 30.7707 24.7164 30.8003C24.6949 30.8477 24.6726 30.8961 24.6502 30.9444C22.8526 34.7611 19.294 37.599 15.0157 38.2984C14.9594 38.3073 14.9031 38.3163 14.8468 38.3244C14.6332 38.3557 14.4177 38.3826 14.2014 38.4041C13.817 38.4409 13.4282 38.4605 13.034 38.4632C5.84252 38.5054 0 32.6783 0 25.4837C0 25.3682 0.00178082 25.2527 0.00445205 25.1381C0.00623288 25.0807 0.0080137 25.0235 0.0106849 24.9661C0.0124658 24.924 0.0142466 24.8819 0.0169178 24.8398C0.0285822 24.5962 0.0481712 24.3545 0.0750616 24.1144C0.086726 24.006 0.100082 23.8976 0.114418 23.7902C0.140329 23.6004 0.170692 23.4114 0.204705 23.2234C0.21539 23.1688 0.225274 23.1132 0.236849 23.0577C0.256527 22.9556 0.277986 22.8535 0.300336 22.7524C0.31013 22.7094 0.320014 22.6664 0.330699 22.6234C0.419205 22.2446 0.52561 21.872 0.648041 21.5058C0.665048 21.4539 0.682945 21.4019 0.701644 21.35C0.71598 21.307 0.731116 21.2649 0.747233 21.2219C0.779377 21.1314 0.81339 21.0418 0.848206 20.9523C0.864322 20.9093 0.88124 20.8672 0.898247 20.8251C0.925938 20.7552 0.954521 20.6854 0.984082 20.6156C1.00732 20.5601 1.03145 20.5045 1.05558 20.449C1.07971 20.3935 1.10384 20.3388 1.12886 20.2843C1.15745 20.2215 1.18701 20.1589 1.21559 20.0971C1.23794 20.0505 1.26029 20.004 1.28353 19.9574C1.31033 19.9028 1.33713 19.849 1.36402 19.7953C1.39171 19.7416 1.41851 19.6879 1.44719 19.635C1.47488 19.5813 1.50257 19.5285 1.53213 19.4756C1.56071 19.4228 1.58938 19.3699 1.61886 19.318C1.64477 19.2715 1.67157 19.2249 1.69837 19.1792C1.85571 18.9052 2.02373 18.6374 2.20163 18.376C2.22932 18.3339 2.2579 18.2918 2.28747 18.2506C2.83632 17.4616 3.47011 16.7346 4.1754 16.0808C4.43825 15.8381 4.71081 15.6053 4.99245 15.3832C9.33409 11.9605 11.3016 6.32675 10.0448 0.93753C9.96619 0.5999 10.2728 0.502314 10.4605 0.546201C10.4694 0.548877 10.4784 0.551553 10.4873 0.554229C10.4917 0.556013 10.4971 0.557797 10.5016 0.558689C10.5624 0.579295 10.6231 0.599009 10.6831 0.620506C10.8404 0.674206 10.9968 0.731562 11.1515 0.790614C11.1962 0.807652 11.2409 0.825581 11.2847 0.84253C11.3383 0.864027 11.392 0.885525 11.4447 0.907023C11.4894 0.924952 11.5332 0.942882 11.577 0.961614C11.628 0.983112 11.678 1.00461 11.7281 1.02611C11.7844 1.05028 11.8408 1.07535 11.897 1.10041C12.0258 1.15777 12.1536 1.21682 12.2805 1.27775C12.3368 1.3046 12.3932 1.33234 12.4486 1.36017C12.5559 1.41298 12.6631 1.46766 12.7695 1.52314C12.824 1.55177 12.8777 1.57952 12.9313 1.60913C12.9965 1.6441 13.0609 1.67898 13.1252 1.71573C13.5105 1.92883 13.8885 2.15897 14.2605 2.40437C14.3257 2.44736 14.3901 2.49036 14.4545 2.53424C14.9622 2.87901 15.4574 3.2533 15.9384 3.65275C15.9983 3.70199 16.0572 3.75212 16.1163 3.80234C16.3048 3.96263 16.4917 4.1265 16.6759 4.29491C16.734 4.34861 16.7921 4.4024 16.8502 4.4561C17.1497 4.73459 17.4429 5.02387 17.7308 5.32296C17.7799 5.37488 17.8299 5.42688 17.8792 5.47969C17.9418 5.54597 18.0043 5.61224 18.066 5.67941C18.1143 5.73222 18.1625 5.78512 18.2108 5.83792C18.2662 5.89885 18.3207 5.95879 18.3752 6.02061C18.436 6.08867 18.4959 6.15673 18.5558 6.22568C18.5978 6.27403 18.6399 6.32327 18.6819 6.37162C18.7409 6.44057 18.799 6.50952 18.8571 6.57848C18.9098 6.64208 18.9626 6.70479 19.0145 6.7683C19.0672 6.8319 19.12 6.89639 19.1709 6.9608C19.2201 7.02083 19.2683 7.08167 19.3157 7.14259C19.3469 7.18023 19.3765 7.21779 19.406 7.25632C19.448 7.30824 19.4891 7.36113 19.5293 7.41483C19.5633 7.45872 19.5972 7.50261 19.6303 7.5465C19.7312 7.67905 19.8305 7.8125 19.9297 7.94683C20.0298 8.08385 20.1291 8.22086 20.2265 8.35966C20.2739 8.42594 20.3194 8.49221 20.3659 8.55849C20.4133 8.62655 20.4607 8.6964 20.508 8.76535C20.5554 8.8343 20.6019 8.90415 20.6484 8.97399C20.6859 9.02859 20.7225 9.08416 20.7592 9.13964C21.4618 10.2062 22.1019 11.3292 22.6731 12.4871C22.7401 12.6232 22.8063 12.7594 22.8715 12.8964C23.1933 13.5707 23.491 14.2558 23.7645 14.948C23.7949 15.025 23.8253 15.1021 23.8548 15.1791C23.8852 15.256 23.9147 15.3331 23.9433 15.411C23.9728 15.488 24.0015 15.565 24.0301 15.6429C24.0586 15.7199 24.0873 15.797 24.115 15.8748C24.2026 16.1175 24.2876 16.3611 24.3689 16.6047C24.3912 16.6727 24.4144 16.7399 24.4359 16.808C24.4618 16.8858 24.4877 16.9638 24.5119 17.0417C24.5369 17.1204 24.5619 17.1984 24.586 17.2763C24.6522 17.4894 24.7166 17.7026 24.7773 17.9157C24.7889 17.9569 24.8005 17.9972 24.8122 18.0374C24.8292 18.0966 24.8452 18.1556 24.8622 18.2148C24.8837 18.2935 24.9052 18.3724 24.9266 18.4503C24.9472 18.5281 24.9677 18.607 24.9883 18.6849C25.0107 18.7673 25.0312 18.8496 25.0518 18.932C25.0876 19.0744 25.1224 19.2168 25.1573 19.3592C25.1779 19.4479 25.1985 19.5366 25.219 19.6252C25.2529 19.7775 25.287 19.9288 25.3191 20.0811C25.32 20.0855 25.3209 20.09 25.3218 20.0945C25.3548 20.2504 25.3862 20.4053 25.4165 20.5602C25.5229 21.1073 25.6132 21.6527 25.6856 22.1936C25.6963 22.2715 25.7062 22.3486 25.716 22.4255C25.7195 22.456 25.7231 22.4856 25.7266 22.516C25.7445 22.6575 25.7607 22.7981 25.7749 22.9386C25.7838 23.0174 25.7919 23.0963 25.799 23.1741C25.8143 23.3309 25.8285 23.4876 25.8402 23.6425C25.8517 23.7939 25.8625 23.9452 25.8714 24.0957C25.8768 24.1861 25.8821 24.2766 25.8858 24.3661C25.8893 24.4333 25.892 24.5014 25.8956 24.5685V24.573C25.8982 24.6464 25.9009 24.7198 25.9036 24.7924V24.8113C25.9053 24.8838 25.9071 24.9563 25.9089 25.0289C25.9107 25.1076 25.9116 25.1864 25.9116 25.2643Z" fill="url(#paint0_radial_48_1014)"/>
<path d="M20.0433 31.1394C19.2768 34.9075 15.5849 37.4019 11.8351 36.58C8.11534 35.7647 5.77303 32.0742 6.60779 28.3577C7.03706 26.4467 8.26244 24.9112 9.85538 23.9873C12.5507 22.4238 14.223 19.6476 14.6475 16.5565C14.6482 16.5513 14.649 16.549 14.6499 16.5495C19.1395 18.9909 21.0724 26.0801 20.0433 31.1394Z" fill="url(#paint1_radial_48_1014)"/>
<path d="M25.9116 25.2643C25.9116 25.3198 25.9107 25.3763 25.9107 25.4326C25.9045 25.9126 25.8731 26.3873 25.8177 26.8547C25.6792 28.0206 25.3913 29.1436 24.9721 30.2004C24.9524 30.2496 24.9328 30.2989 24.9122 30.3481C24.8916 30.3965 24.871 30.4457 24.8514 30.4949C24.8299 30.5433 24.8093 30.5925 24.7879 30.6409C24.7772 30.6641 24.7664 30.6874 24.7566 30.7116C24.7432 30.7411 24.7298 30.7707 24.7164 30.8003C24.6949 30.8477 24.6726 30.8961 24.6502 30.9444C22.857 34.7664 19.3101 37.6035 15.0157 38.2984C14.9594 38.3073 14.9031 38.3163 14.8468 38.3244C14.6332 38.3566 14.4177 38.3826 14.2014 38.4041C13.817 38.4409 13.4282 38.4605 13.034 38.4632C5.84252 38.5054 0 32.6783 0 25.4837C0 25.3682 0.00178082 25.2527 0.00445205 25.1381C0.00623288 25.0807 0.0080137 25.0235 0.0106849 24.9661C0.0124658 24.924 0.0142466 24.8819 0.0169178 24.8398C0.0285822 24.5962 0.0481712 24.3545 0.0750616 24.1144C0.086726 24.006 0.100082 23.8976 0.114418 23.7902C0.140329 23.6004 0.170692 23.4114 0.204705 23.2234C0.21539 23.1688 0.225274 23.1132 0.236849 23.0577C0.256527 22.9556 0.277986 22.8535 0.300336 22.7524C0.31013 22.7094 0.320014 22.6664 0.330699 22.6234C0.419205 22.2446 0.52561 21.872 0.648041 21.5058C0.665048 21.4539 0.682945 21.4019 0.701644 21.35C0.71598 21.307 0.731116 21.2649 0.747233 21.2219C0.779377 21.1314 0.81339 21.0418 0.848206 20.9523C0.864322 20.9093 0.88124 20.8672 0.898247 20.8251C0.925938 20.7552 0.954521 20.6854 0.984082 20.6156C1.00732 20.5601 1.03145 20.5045 1.05558 20.449C1.07971 20.3935 1.10384 20.3388 1.12886 20.2843C1.15745 20.2215 1.18701 20.1589 1.21559 20.0971C1.23794 20.0505 1.26029 20.004 1.28353 19.9574C1.31033 19.9028 1.33713 19.849 1.36402 19.7953C1.39171 19.7416 1.41851 19.6879 1.44719 19.635C1.47488 19.5813 1.50257 19.5285 1.53213 19.4756C1.56071 19.4228 1.58938 19.3699 1.61886 19.318C1.64477 19.2715 1.67157 19.2249 1.69837 19.1792C1.85571 18.9052 2.02373 18.6374 2.20163 18.376C2.22932 18.3339 2.2579 18.2918 2.28747 18.2506C2.83632 17.4616 3.47011 16.7346 4.1754 16.0808C4.43825 15.8381 4.71081 15.6053 4.99245 15.3832C9.33409 11.9605 11.3016 6.32675 10.0448 0.93753C9.96619 0.5999 10.2728 0.502314 10.4605 0.546201C10.4694 0.548877 10.4784 0.551553 10.4873 0.554229C10.4917 0.556013 10.4971 0.557797 10.5016 0.558689C10.5624 0.579295 10.6231 0.599009 10.6831 0.620506C10.8404 0.674206 10.9968 0.731562 11.1515 0.790614C11.1962 0.807652 11.2409 0.825581 11.2847 0.84253C11.3383 0.864027 11.392 0.885525 11.4447 0.907023C11.4894 0.924952 11.5332 0.942882 11.577 0.961614C11.628 0.983112 11.678 1.00461 11.7281 1.02611C11.7844 1.05028 11.8408 1.07535 11.897 1.10041C12.0258 1.15777 12.1536 1.21682 12.2805 1.27775C12.3368 1.3046 12.3932 1.33234 12.4486 1.36017C12.5559 1.41298 12.6631 1.46766 12.7695 1.52314C12.824 1.55177 12.8777 1.57952 12.9313 1.60913C12.9965 1.6441 13.0609 1.67898 13.1252 1.71573C13.5105 1.92883 13.8885 2.15897 14.2605 2.40437C14.3257 2.44736 14.3901 2.49036 14.4545 2.53424C14.9622 2.87901 15.4574 3.2533 15.9384 3.65275C15.9983 3.70199 16.0572 3.75212 16.1163 3.80234C16.3048 3.96263 16.4917 4.1265 16.6759 4.29491C16.734 4.34861 16.7921 4.4024 16.8502 4.4561C17.1497 4.73459 17.4429 5.02387 17.7308 5.32296C17.7799 5.37488 17.8299 5.42688 17.8792 5.47969C17.9418 5.54597 18.0043 5.61224 18.066 5.67941C18.1143 5.73222 18.1625 5.78512 18.2108 5.83792C18.2662 5.89885 18.3207 5.95879 18.3752 6.02061C18.436 6.08867 18.4959 6.15673 18.5558 6.22568C18.5978 6.27403 18.6399 6.32327 18.6819 6.37162C18.7409 6.44057 18.799 6.50952 18.8571 6.57848C18.9098 6.64208 18.9626 6.70479 19.0145 6.7683C19.0672 6.8319 19.12 6.89639 19.1709 6.9608C19.2201 7.02083 19.2683 7.08167 19.3157 7.14259C19.3469 7.18023 19.3765 7.21779 19.406 7.25632C19.448 7.30824 19.4891 7.36113 19.5293 7.41483C19.5633 7.45872 19.5972 7.50261 19.6303 7.5465C19.7312 7.67905 19.8305 7.8125 19.9297 7.94683C20.0298 8.08385 20.1291 8.22086 20.2265 8.35966C20.2739 8.42594 20.3194 8.49221 20.3659 8.55849C20.4133 8.62655 20.4607 8.6964 20.508 8.76535C20.5554 8.8343 20.6019 8.90415 20.6484 8.97399C20.6859 9.02859 20.7225 9.08416 20.7592 9.13964C21.4618 10.2062 22.1019 11.3292 22.6731 12.4871C22.7401 12.6232 22.8063 12.7594 22.8715 12.8964C23.1933 13.5707 23.491 14.2558 23.7645 14.948C23.7949 15.025 23.8253 15.1021 23.8548 15.1791C23.8852 15.256 23.9147 15.3331 23.9433 15.411C23.9728 15.488 24.0015 15.565 24.0301 15.6429C24.0586 15.7199 24.0873 15.797 24.115 15.8748C24.2026 16.1175 24.2876 16.3611 24.3689 16.6047C24.3912 16.6727 24.4144 16.7399 24.4359 16.808C24.4618 16.8858 24.4877 16.9638 24.5119 17.0417C24.5369 17.1204 24.5619 17.1984 24.586 17.2763C24.6522 17.4894 24.7157 17.7026 24.7773 17.9157C24.7889 17.9569 24.8005 17.9972 24.8122 18.0374C24.8292 18.0966 24.8452 18.1556 24.8622 18.2148C24.8837 18.2935 24.9052 18.3724 24.9266 18.4503C24.9472 18.5281 24.9677 18.607 24.9883 18.6849C25.0107 18.7673 25.0312 18.8496 25.0518 18.932C25.0876 19.0744 25.1224 19.2168 25.1573 19.3592C25.1779 19.4479 25.1985 19.5366 25.219 19.6252C25.2529 19.7775 25.287 19.9288 25.3191 20.0811C25.32 20.0855 25.3209 20.09 25.3218 20.0945C25.3548 20.2504 25.3862 20.4053 25.4165 20.5602C25.5229 21.1073 25.6132 21.6527 25.6856 22.1936C25.6963 22.2715 25.7062 22.3486 25.716 22.4255C25.7195 22.456 25.7231 22.4856 25.7266 22.516C25.7445 22.6575 25.7607 22.7981 25.7749 22.9386C25.7838 23.0174 25.7919 23.0963 25.799 23.1741C25.8143 23.3309 25.8285 23.4876 25.8402 23.6425C25.8517 23.7939 25.8625 23.9452 25.8714 24.0957C25.8768 24.1861 25.8821 24.2766 25.8858 24.3661C25.8893 24.4333 25.892 24.5014 25.8956 24.5685V24.573C25.8982 24.6464 25.9009 24.7198 25.9036 24.7924V24.8113C25.9053 24.8507 25.9062 24.89 25.9071 24.9294C25.908 24.9625 25.9089 24.9957 25.9089 25.0288C25.9107 25.1076 25.9116 25.1864 25.9116 25.2643Z" fill="url(#paint2_radial_48_1014)"/>
<path d="M22.9665 24.5898C22.691 30.38 17.7646 34.9477 11.9894 34.5885C6.26048 34.2321 1.92275 29.2747 2.31186 23.5457C2.51202 20.5997 3.9845 18.0296 6.14517 16.2855C9.80111 13.3345 12.1654 8.447 12.0872 3.74418C12.0872 3.74383 12.0875 3.74249 12.0881 3.74026C12.1751 3.4128 12.5369 3.24126 12.8475 3.37533C19.7221 6.3413 23.3265 17.0243 22.9665 24.5898Z" fill="url(#paint3_linear_48_1014)"/>
</g>
<defs>
<radialGradient id="paint0_radial_48_1014" cx="0" cy="0" r="1" gradientUnits="userSpaceOnUse" gradientTransform="translate(-0.656553 0.429965) scale(37.6861 37.7542)">
<stop stop-color="#FFCF42"/>
<stop offset="0.262" stop-color="#FFCD42"/>
<stop offset="0.408" stop-color="#FFC540"/>
<stop offset="0.525" stop-color="#FFB73E"/>
<stop offset="0.628" stop-color="#FFA33A"/>
<stop offset="0.72" stop-color="#FF8A35"/>
<stop offset="0.805" stop-color="#FF6A30"/>
<stop offset="0.885" stop-color="#FF4529"/>
<stop offset="0.958" stop-color="#FF1B21"/>
<stop offset="1" stop-color="#FF001C"/>
</radialGradient>
<radialGradient id="paint1_radial_48_1014" cx="0" cy="0" r="1" gradientUnits="userSpaceOnUse" gradientTransform="translate(14.3612 21.0676) scale(14.1421 14.1677)">
<stop stop-color="#FFB500" stop-opacity="0"/>
<stop offset="0.109" stop-color="#FCAD01" stop-opacity="0.109"/>
<stop offset="0.281" stop-color="#F49605" stop-opacity="0.281"/>
<stop offset="0.496" stop-color="#E8710B" stop-opacity="0.496"/>
<stop offset="0.744" stop-color="#D63D13" stop-opacity="0.744"/>
<stop offset="1" stop-color="#C1001C"/>
</radialGradient>
<radialGradient id="paint2_radial_48_1014" cx="0" cy="0" r="1" gradientUnits="userSpaceOnUse" gradientTransform="translate(9.51361 12.4449) scale(25.0958 25.1411)">
<stop stop-color="#F9C6A0" stop-opacity="0"/>
<stop offset="0.014" stop-color="#F9C69E" stop-opacity="0"/>
<stop offset="0.02" stop-color="#FAC797" stop-opacity="0"/>
<stop offset="0.023" stop-color="#FAC88C" stop-opacity="0"/>
<stop offset="0.026" stop-color="#FBCA7B" stop-opacity="0"/>
<stop offset="0.029" stop-color="#FDCC65" stop-opacity="0"/>
<stop offset="0.031" stop-color="#FECE4A" stop-opacity="0"/>
<stop offset="0.032" stop-color="#FFCF42" stop-opacity="0"/>
<stop offset="0.408" stop-color="#FFCD42" stop-opacity="0.389"/>
<stop offset="0.543" stop-color="#FFC640" stop-opacity="0.529"/>
<stop offset="0.64" stop-color="#FFBB3E" stop-opacity="0.628"/>
<stop offset="0.718" stop-color="#FFAA3B" stop-opacity="0.709"/>
<stop offset="0.785" stop-color="#FF9437" stop-opacity="0.778"/>
<stop offset="0.845" stop-color="#FF7832" stop-opacity="0.839"/>
<stop offset="0.898" stop-color="#FF582C" stop-opacity="0.895"/>
<stop offset="0.947" stop-color="#FF3225" stop-opacity="0.946"/>
<stop offset="0.991" stop-color="#FF091E" stop-opacity="0.991"/>
<stop offset="1" stop-color="#FF001C"/>
</radialGradient>
<linearGradient id="paint3_linear_48_1014" x1="17.7579" y1="16.7345" x2="40.9592" y2="3.29005" gradientUnits="userSpaceOnUse">
<stop offset="0.0001" stop-color="#E7EEED" stop-opacity="0"/>
<stop offset="1" stop-color="#E7EEED"/>
</linearGradient>
<clipPath id="clip0_48_1014">
<rect width="26" height="38" fill="white" transform="translate(0 0.5)"/>
</clipPath>
</defs>
</svg>
